<svg xmlns="http://www.w3.org/2000/svg" viewBox="0 0 80 80" fill="none">
  <rect width="80" height="80" rx="16" fill="#0a0a0b"/>
  <path
    d="M 40 40 C 40 36, 44 32, 48 32 C 52 32, 56 36, 56 40 C 56 46, 50 52, 44 52 C 36 52, 28 46, 28 38 C 28 28, 36 20, 46 20 C 58 20, 66 30, 66 42 C 66 56, 54 66, 42 66 C 26 66, 16 54, 16 40 C 16 22, 28 10, 44 10 C 64 10, 78 26, 78 44 C 78 66, 60 78, 40 78"
    stroke="#ff8a3d"
    stroke-width="4"
    stroke-linecap="round"
    stroke-linejoin="round"
  />
</svg>
